<?xml version="1.0" encoding="utf-8"?>
<!-- Generator: Adobe Illustrator 22.0.1, SVG Export Plug-In . SVG Version: 6.00 Build 0)  -->
<svg version="1.1" id="Layer_1" xmlns="http://www.w3.org/2000/svg" xmlns:xlink="http://www.w3.org/1999/xlink" x="0px" y="0px"
	 viewBox="0 0 227.7 246.2" style="enable-background:new 0 0 227.7 246.2;" xml:space="preserve">
<style type="text/css">
	.st0{opacity:0.3;fill:#FFFFFF;enable-background:new    ;}
	.st1{fill:#FFFFFF;}
	.st2{fill:#7F7F7F;}
	.st3{fill:#993386;}
</style>
<path class="st0" d="M120.2,179c-2.3,0-4.7-0.1-7.1-0.2c-8.2-0.5-17.4-1.1-26.3-2.8l-0.9-0.2c-7.1-1.3-16-3-20.5-8.7
	c-5.3-6.9-8.1-15.7-10.6-24.9c-3.4-12.2-4.8-25.8-4.2-41.6c0.5-11.4,1.6-22.7,3.3-33.9c0.3-1.8,0.5-3.7,0.8-5.6
	c1.3-9.7,2.7-19.8,8-27.9s15.5-13.4,30.3-15.7c6.9-1.1,13.8-1.6,20.8-1.6c7.2,0,14.4,0.5,21.5,1.3c6.3,0.7,13.1,1.7,20.7,3.1
	c1.2,0.2,2.5,0.4,3.7,0.6c4.4,0.6,9,1.2,12.2,3.8c2.6,2.1,4.3,5.7,5.2,10.6c3.3,19.5,3.5,39.6,3.4,60.1c0,3.8-0.1,7.7-0.2,11.5
	c-0.2,5.5-0.3,11.2-0.2,16.7c0.1,3,0.4,6.1,0.8,9.1c0.8,6.7,1.6,13.1-1.9,19.9c-3.8,7.4-11.5,14.1-21.7,18.9
	C146.8,176.4,134,179,120.2,179z"/>
<path class="st1" d="M113.9,14.4v3c7.1,0,14.2,0.4,21.3,1.2c6.3,0.7,13,1.7,20.6,3c1.2,0.2,2.5,0.4,3.8,0.6
	c4.2,0.6,8.6,1.2,11.5,3.5c2.3,1.9,3.9,5.1,4.6,9.7c3.3,19.4,3.5,39.4,3.3,59.9c0,3.8-0.1,7.7-0.2,11.4c-0.2,5.5-0.3,11.2-0.2,16.8
	c0.1,3.1,0.4,6.2,0.8,9.3c0.8,6.8,1.6,12.6-1.7,19c-3.7,7.1-11.1,13.6-21,18.2c-10.2,4.9-22.8,7.4-36.4,7.4c-2.3,0-4.7-0.1-7-0.2
	c-8.1-0.5-17.3-1.1-26.1-2.8l-0.9-0.2c-6.9-1.3-15.4-2.9-19.5-8.2c-5.2-6.6-7.9-15.3-10.4-24.4c-3.3-12-4.7-25.4-4.1-41
	c0.5-11.3,1.6-22.6,3.3-33.7c0.3-1.9,0.5-3.8,0.8-5.6c1.3-9.6,2.6-19.5,7.7-27.2S78.9,21.2,93.3,19c6.8-1,13.7-1.6,20.5-1.5V14.4
	 M113.9,14.4c-7,0-14.1,0.5-21,1.6c-11.7,1.9-24.6,6.2-31.3,16.4c-6.5,10-7.2,22.6-9,34c-1.7,11.3-2.9,22.7-3.3,34.1
	c-0.5,14.1,0.4,28.4,4.2,42.1c2.4,8.8,5.2,18.1,10.9,25.4c5,6.4,14.6,8,22.2,9.4c8.8,1.5,17.6,2.4,26.5,2.8c2.4,0.1,4.8,0.2,7.2,0.2
	c12.9,0,26.1-2.2,37.7-7.7c9.4-4.4,18-11.1,22.4-19.6c5.3-10.2,1.5-19.1,1.3-29.7c-0.2-9.3,0.4-18.8,0.5-28.1
	c0.1-20.2,0-40.4-3.4-60.4c-0.7-4.3-2.3-8.8-5.7-11.5c-4.5-3.6-11.2-3.7-16.6-4.6c-6.9-1.2-13.8-2.3-20.8-3.1
	C128.3,14.9,121.1,14.5,113.9,14.4L113.9,14.4z"/>
<path class="st0" d="M128.2,179c-2.3,0-4.7-0.1-7.1-0.2c-8.2-0.5-17.4-1.1-26.3-2.8l-0.9-0.2c-7.1-1.3-16-3-20.5-8.7
	c-5.3-6.9-8.1-15.7-10.6-24.9c-3.4-12.2-4.8-25.8-4.2-41.6c0.5-11.4,1.6-22.7,3.3-33.9c0.3-1.8,0.5-3.7,0.8-5.6
	c1.3-9.7,2.7-19.8,8-27.9s15.5-13.4,30.3-15.7c6.9-1.1,13.8-1.6,20.8-1.6c7.2,0,14.4,0.5,21.5,1.3c6.3,0.7,13.1,1.7,20.7,3.1
	c1.2,0.2,2.5,0.4,3.7,0.6c4.4,0.6,9,1.2,12.2,3.8c2.6,2.1,4.3,5.7,5.2,10.6c3.3,19.5,3.5,39.6,3.4,60.1c0,3.8-0.1,7.7-0.2,11.5
	c-0.2,5.5-0.3,11.2-0.2,16.7c0.1,3,0.4,6.1,0.8,9.1c0.8,6.7,1.6,13.1-1.9,19.9c-3.8,7.4-11.5,14.1-21.7,18.9
	C154.8,176.4,142,179,128.2,179z"/>
<path class="st1" d="M121.9,14.4v3c7.1,0,14.2,0.4,21.3,1.2c6.3,0.7,13,1.7,20.6,3c1.2,0.2,2.5,0.4,3.8,0.6
	c4.2,0.6,8.6,1.2,11.5,3.5c2.3,1.9,3.9,5.1,4.6,9.7c3.3,19.4,3.5,39.4,3.3,59.9c0,3.8-0.1,7.7-0.2,11.4c-0.2,5.5-0.3,11.2-0.2,16.8
	c0.1,3.1,0.4,6.2,0.8,9.3c0.8,6.8,1.6,12.6-1.7,19c-3.7,7.1-11.1,13.6-21,18.2c-10.2,4.9-22.8,7.4-36.4,7.4c-2.3,0-4.7-0.1-7-0.2
	c-8.1-0.5-17.3-1.1-26.1-2.8l-0.9-0.2c-6.9-1.3-15.4-2.9-19.5-8.2c-5.2-6.6-7.9-15.3-10.4-24.4c-3.3-12-4.7-25.4-4.1-41
	c0.5-11.3,1.6-22.6,3.3-33.7c0.3-1.9,0.5-3.8,0.8-5.6c1.3-9.6,2.6-19.5,7.7-27.2S86.9,21.2,101.3,19c6.8-1,13.7-1.6,20.5-1.5V14.4
	 M121.9,14.4c-7,0-14.1,0.5-21,1.6c-11.7,1.9-24.6,6.2-31.3,16.4c-6.5,10-7.2,22.6-9,34c-1.7,11.3-2.9,22.7-3.3,34.1
	c-0.5,14.1,0.4,28.4,4.2,42.1c2.4,8.8,5.2,18.1,10.9,25.4c5,6.4,14.6,8,22.2,9.4c8.8,1.5,17.6,2.4,26.5,2.8c2.4,0.1,4.8,0.2,7.2,0.2
	c12.9,0,26.1-2.2,37.7-7.7c9.4-4.4,18-11.1,22.4-19.6c5.3-10.2,1.5-19.1,1.3-29.7c-0.2-9.3,0.4-18.8,0.5-28.1
	c0.1-20.2,0-40.4-3.4-60.4c-0.7-4.3-2.3-8.8-5.7-11.5c-4.5-3.6-11.2-3.7-16.6-4.6c-6.9-1.2-13.8-2.3-20.8-3.1
	C136.3,14.9,129.1,14.5,121.9,14.4L121.9,14.4z"/>
<path class="st2" d="M161,17.3c-15.1,2-30.1,3.1-45.4,2.3c-2.8-0.1-26.4,0.7-27-5C88.2,9.8,88.1,5,88.3,0.1
	c4.9,0.3,9.9,0.1,14.8,0.1c8.4,0,16.8-0.1,25.2-0.1c2.4,0,36.5-0.6,36.6,0.8v15.9L161,17.3z"/>
<path class="st3" d="M179.9,245.2c-0.7,0.3-1.3,0.7-2,1c3.8-10.5,6.8-21.3,8.9-32.3c2.3-11.8,1.2-22.6-2.5-34.1
	c-2.8-8.6-7-17.5-14.6-22.9c-2.1-1.5-4.5-2.7-7-3.5c-5.4-1.8-11.2-2.5-16.8-3.6c-1-0.1-1.9-0.5-2.6-1.1c-0.6-0.8-0.8-1.9-0.6-2.9
	c0.8-4.9,6.6-7.6,11.6-7.3s9.6,2.5,14.6,3.6c-3.5-3-7.6-5.2-12-6.5c-1.9-0.6-3.9-1-5.2-2.6c-1.4-1.7-1.2-4.2-0.2-6.1
	c1.1-2.1,3.1-3.7,5.4-4.4c2.2-0.5,4.6-0.4,6.8,0.2c6.6,1.3,12.8,3.8,18.6,7.3c-3.2-5.8-9.6-9-15.5-12c-3-1.5-6.6-4.3-5.4-7.5
	c1-2.6,4.4-3.1,7.1-3c11.6,0.7,22.5,6.1,31,14s14.7,18,19.2,28.7c2.7,6.3,4.7,12.9,6.2,19.5c1.5,6.7,2.4,13.5,2.7,20.3
	c0.3,6.8,0.1,13.7-0.6,20.5c-0.4,3.4-0.9,6.8-1.5,10.2c-0.3,1.7-0.7,3.3-1.1,5c-0.2,1.5-0.6,3.1-1.1,4.6c-0.3,0.6-0.7,0.7-1.3,0.9
	l-2.8,0.8c-1.8,0.5-3.7,1.1-5.5,1.6c-3.6,1.1-7.3,2.2-10.9,3.4C195.1,239.4,187,241.7,179.9,245.2L179.9,245.2z M44.6,187.9
	c-1-2.2-1.7-4.6-2-7c-1.4-9.3-0.2-18.4,1.3-27.6c0.8-4.5,2.1-8.9,3.8-13.1c5.7-15.4,19.2-33.7,37.3-34c5.7-0.1,11.4,0.9,17.1,1.5
	c1,0.2,2,0.1,2.8-0.3c0.8-0.6,1.3-1.6,1.4-2.6c0.7-5-4.1-9.2-9-10.3s-10-0.4-15-0.8c4.2-1.9,8.8-2.9,13.5-2.8c2,0,4.1,0.2,5.7-1
	c1.8-1.2,2.4-3.7,2-5.8c-0.4-2.4-1.8-4.4-3.9-5.7c-2-1.1-4.2-1.7-6.5-1.7c-6.7-0.6-13.4-0.1-19.9,1.6c4.7-4.7,11.8-5.9,18.3-7
	c3.3-0.6,7.6-2.2,7.3-5.6c-0.2-2.8-3.3-4.3-6-4.9c-11.3-2.7-23.3-0.7-33.8,4.3S39.7,77.7,32.4,86.7c-14.2,17.2-23.8,38.2-28.6,60
	c-4.5,20.6-7.1,46.7,4.5,65.3c1.3,2.1,2.6,4.1,3.8,6.3c-0.1-0.3,40.5-15.9,38.8-18.8C48.6,195.3,46.2,191.8,44.6,187.9L44.6,187.9z"
	/>
</svg>
